<?xml version="1.0" standalone="no"?>
<!DOCTYPE svg PUBLIC "-//W3C//DTD SVG 20010904//EN"
 "http://www.w3.org/TR/2001/REC-SVG-20010904/DTD/svg10.dtd">
<svg version="1.0" xmlns="http://www.w3.org/2000/svg"
 width="126.000000pt" height="126.000000pt" viewBox="0 0 126.000000 126.000000"
 preserveAspectRatio="xMidYMid meet">
<metadata>
Created by potrace 1.10, written by Peter Selinger 2001-2011
</metadata>
<g transform="translate(0.000000,126.000000) scale(0.100000,-0.100000)"
fill="#000000" stroke="none">
<path d="M590 1245 c0 -9 -8 -18 -17 -22 -52 -17 -152 -66 -373 -181 -216
-112 -200 -99 -200 -159 0 -51 1 -53 28 -53 51 0 72 -11 72 -36 0 -13 15 -41
33 -61 l32 -38 -1 -169 c-1 -164 -2 -170 -25 -195 -26 -29 -59 -104 -59 -137
0 -17 -8 -23 -40 -28 -34 -5 -40 -10 -40 -31 0 -13 5 -27 10 -30 6 -3 10 -17
10 -31 0 -13 5 -24 10 -24 6 0 10 15 10 34 0 19 5 38 10 41 14 9 1126 9 1140
0 6 -4 10 -21 8 -38 -4 -38 25 -46 30 -10 2 13 10 23 18 23 9 0 14 11 14 30 0
28 -3 30 -50 36 -42 6 -50 10 -50 28 0 34 -33 111 -59 138 -23 23 -23 29 -24
195 l0 172 31 36 c18 19 32 46 32 59 0 26 21 36 83 36 l37 0 0 54 c0 52 -1 55
-30 61 -16 4 -32 10 -34 14 -3 4 -58 34 -123 66 -65 33 -120 62 -123 65 -11
12 -237 119 -282 134 -10 3 -18 12 -18 21 0 10 -10 15 -30 15 -20 0 -30 -5
-30 -15z m95 -74 c28 -16 157 -82 287 -148 131 -65 240 -124 243 -131 3 -8 3
-18 -1 -23 -7 -12 -1181 -12 -1188 0 -14 22 16 42 212 139 114 56 243 123 287
147 44 24 87 44 95 44 8 0 38 -13 65 -28z m-231 -347 c9 -4 16 -18 16 -33 0
-17 11 -38 30 -56 l30 -29 0 -180 0 -180 -26 -21 c-14 -11 -29 -36 -33 -55
-10 -50 -46 -54 -65 -8 -8 18 -26 46 -40 61 -26 28 -26 29 -26 202 0 171 0
174 25 203 14 17 32 46 40 66 16 37 22 41 49 30z m381 -30 c8 -20 26 -49 40
-66 25 -29 25 -32 25 -203 0 -173 0 -174 -26 -202 -14 -15 -32 -43 -40 -61
-19 -46 -55 -42 -65 7 -4 18 -19 44 -33 58 l-26 24 0 178 0 177 30 29 c19 18
30 39 30 56 0 26 10 36 37 38 7 1 19 -15 28 -35z m-483 8 c11 -11 8 -18 -15
-38 -40 -34 -133 -35 -173 -1 -47 41 -29 53 79 52 66 0 100 -4 109 -13z m361
11 c25 -6 21 -28 -9 -52 -37 -29 -131 -29 -168 0 -28 22 -34 44 -13 52 15 6
166 6 190 0z m383 -13 c3 -9 -5 -24 -21 -37 -38 -33 -133 -33 -172 1 -45 39
-22 51 91 51 76 0 97 -3 102 -15z m-861 -270 c0 -158 -2 -175 -18 -178 -16 -3
-17 11 -17 178 0 167 1 181 17 178 16 -3 18 -20 18 -178z m59 0 c-1 -160 -2
-175 -18 -175 -16 0 -18 14 -18 170 1 94 1 174 1 178 1 5 9 7 18 5 16 -3 17
-21 17 -178z m374 -3 l2 -177 -51 3 -51 3 0 170 1 169 33 6 c66 13 63 21 66
-174z m314 3 c0 -161 -1 -175 -18 -175 -16 0 -17 14 -18 173 -1 96 1 176 4
178 2 3 10 3 18 2 11 -2 14 -36 14 -178z m56 -4 c2 -165 1 -177 -15 -174 -16
3 -18 19 -18 173 -1 94 1 174 3 178 2 4 9 6 15 4 8 -2 13 -58 15 -181z m-697
-234 c14 -12 20 -25 16 -35 -9 -25 -205 -25 -214 -1 -4 11 2 23 18 35 34 26
147 27 180 1z m367 2 c12 -8 22 -24 22 -35 0 -18 -8 -19 -110 -19 -102 0 -110
1 -110 19 0 33 38 51 110 51 43 0 73 -5 88 -16z m371 -3 c16 -12 22 -24 18
-35 -9 -24 -205 -24 -214 1 -4 10 2 23 16 35 33 26 146 25 180 -1z m41 -106
c0 -8 -6 -15 -12 -15 -230 -3 -981 1 -988 5 -34 21 41 25 501 25 437 0 499 -2
499 -15z"/>
<path d="M559 1113 c-35 -21 -63 -75 -55 -106 10 -43 65 -87 107 -87 57 0 99
44 99 103 0 39 -5 49 -35 76 -40 35 -76 39 -116 14z m97 -58 c14 -21 15 -31 5
-51 -26 -58 -101 -42 -101 22 0 55 66 75 96 29z"/>
<path d="M20 10 c0 -6 226 -10 600 -10 383 0 600 4 600 10 0 6 -217 9 -600 9
-374 0 -600 -4 -600 -9z"/>
</g>
</svg>
