<?xml version="1.0" standalone="no"?>
<!DOCTYPE svg PUBLIC "-//W3C//DTD SVG 20010904//EN"
 "http://www.w3.org/TR/2001/REC-SVG-20010904/DTD/svg10.dtd">
<svg version="1.0" xmlns="http://www.w3.org/2000/svg"
 width="120.000000pt" height="123.000000pt" viewBox="0 0 120.000000 123.000000"
 preserveAspectRatio="xMidYMid meet">
<metadata>
Created by potrace 1.10, written by Peter Selinger 2001-2011
</metadata>
<g transform="translate(0.000000,123.000000) scale(0.100000,-0.100000)"
fill="#000000" stroke="none">
<path d="M0 665 l0 -565 78 0 c42 0 273 -3 512 -7 239 -3 474 -3 523 1 l87 8
0 564 0 564 -600 0 -600 0 0 -565z m194 517 c10 -17 9 -1034 -1 -1040 -6 -4
-46 -5 -89 -2 l-79 5 3 514 c1 282 5 518 8 522 7 11 151 12 158 1z m214 -432
c1 -239 0 -442 -3 -450 -5 -11 -12 -6 -27 18 -27 43 -58 42 -92 -2 -14 -19
-26 -38 -26 -43 0 -13 60 -73 73 -73 18 0 33 12 46 38 20 38 31 25 31 -38 l0
-60 -79 0 -78 0 -7 57 c-10 75 -10 76 3 153 7 41 11 207 10 445 0 209 0 384 0
388 1 4 34 7 74 5 l72 -3 3 -435z m744 -86 l-1 -519 -342 0 -343 0 2 520 c1
286 2 520 2 520 0 0 154 -1 341 -1 l341 -1 0 -519z m-799 -376 c6 -19 -3 -38
-18 -38 -18 0 -28 17 -21 35 7 18 33 20 39 3z"/>
<path d="M76 315 l-27 -35 21 -34 c24 -40 44 -50 71 -35 58 31 38 139 -26 139
-7 0 -25 -16 -39 -35z m66 -27 c12 -33 -19 -51 -41 -25 -8 10 -7 17 1 25 16
16 35 15 40 0z"/>
<path d="M715 1000 c-146 -5 -150 -6 -153 -27 l-3 -23 165 0 c97 0 167 4 171
10 7 11 -12 51 -23 48 -4 -1 -74 -5 -157 -8z"/>
<path d="M791 890 c-221 -5 -252 -10 -219 -38 8 -6 100 -11 241 -13 208 -3
230 -1 239 14 23 41 11 43 -261 37z"/>
<path d="M579 778 c-10 -4 -19 -14 -19 -23 0 -13 23 -15 164 -15 91 0 167 4
170 8 2 4 1 14 -4 21 -6 10 -43 14 -149 15 -78 0 -151 -2 -162 -6z"/>
<path d="M564 665 c-4 -8 -1 -22 6 -30 10 -12 50 -14 244 -12 l231 2 3 28 3
27 -241 0 c-206 0 -241 -2 -246 -15z"/>
<path d="M108 22 c-61 -1 -108 -7 -108 -12 0 -6 221 -10 600 -10 393 0 600 3
600 10 0 6 -10 10 -22 11 -58 3 -975 4 -1070 1z"/>
</g>
</svg>
