<?xml version="1.0" standalone="no"?>
<!DOCTYPE svg PUBLIC "-//W3C//DTD SVG 20010904//EN"
 "http://www.w3.org/TR/2001/REC-SVG-20010904/DTD/svg10.dtd">
<svg version="1.0" xmlns="http://www.w3.org/2000/svg"
 width="15.000000pt" height="36.000000pt" viewBox="0 0 15.000000 36.000000"
 preserveAspectRatio="xMidYMid meet">
<metadata>
Created by potrace 1.10, written by Peter Selinger 2001-2011
</metadata>
<g transform="translate(0.000000,36.000000) scale(0.100000,-0.100000)"
fill="#000000" stroke="none">
<path d="M49 313 c-10 -11 -9 -17 4 -30 13 -13 19 -14 31 -3 9 7 16 18 16 25
0 19 -37 25 -51 8z"/>
<path d="M24 216 c-3 -9 1 -27 10 -41 20 -31 21 -108 1 -125 -8 -7 -15 -21
-15 -31 0 -16 8 -19 43 -19 l44 0 -5 108 c-2 59 -5 108 -6 109 -2 2 -17 6 -34
9 -24 5 -33 3 -38 -10z"/>
</g>
</svg>
