<?xml version="1.0" standalone="no"?>
<!DOCTYPE svg PUBLIC "-//W3C//DTD SVG 20010904//EN"
 "http://www.w3.org/TR/2001/REC-SVG-20010904/DTD/svg10.dtd">
<svg version="1.0" xmlns="http://www.w3.org/2000/svg"
 width="120.000000pt" height="117.000000pt" viewBox="0 0 120.000000 117.000000"
 preserveAspectRatio="xMidYMid meet">
<metadata>
Created by potrace 1.10, written by Peter Selinger 2001-2011
</metadata>
<g transform="translate(0.000000,117.000000) scale(0.100000,-0.100000)"
fill="#000000" stroke="none">
<path d="M360 1155 c0 -9 -8 -19 -17 -22 -52 -20 -80 -95 -62 -167 6 -24 17
-47 25 -50 12 -4 14 -80 14 -461 l0 -455 385 0 384 0 7 34 c3 19 3 39 0 44
-15 25 7 42 55 42 l49 0 0 470 c0 386 -2 470 -13 470 -8 0 -19 11 -25 25 -7
14 -25 34 -42 43 -16 9 -30 23 -30 30 0 9 -80 12 -365 12 -321 0 -365 -2 -365
-15z m583 -32 c2 -5 -10 -28 -28 -53 -23 -32 -39 -45 -56 -45 -17 0 -24 -6
-24 -20 0 -15 6 -19 22 -18 23 3 66 -42 60 -61 -3 -8 -89 -10 -283 -7 -271 3
-279 4 -294 25 -23 32 -18 41 23 44 30 3 37 7 35 20 -3 12 -13 16 -35 15 -56
-5 -49 46 12 80 13 8 105 14 255 17 129 3 252 7 272 8 20 1 39 -1 41 -5z m141
-14 c19 -11 44 -36 55 -55 20 -34 21 -49 21 -459 0 -418 0 -424 -20 -430 -49
-16 -50 -8 -50 375 0 391 3 370 -58 370 -54 0 -71 11 -88 56 -16 41 -16 45 5
87 16 33 31 49 59 60 20 8 38 15 39 16 1 1 18 -8 37 -20z m-139 -663 l0 -418
-280 1 c-153 1 -284 6 -290 11 -6 5 -10 146 -10 412 l0 403 275 5 c151 3 282
5 290 5 13 0 15 -54 15 -419z m92 416 c19 -12 23 -803 4 -826 -15 -18 -37 -21
-46 -6 -3 5 -6 193 -5 417 0 311 3 409 13 415 15 10 19 10 34 0z"/>
<path d="M1002 1040 c-27 -37 -27 -41 1 -68 26 -24 66 -29 85 -10 18 18 14 73
-6 91 -28 25 -56 21 -80 -13z m68 -30 c0 -25 -4 -30 -25 -30 -14 0 -28 7 -31
15 -10 25 4 45 31 45 21 0 25 -5 25 -30z"/>
<path d="M423 725 c-11 -31 13 -36 158 -33 136 3 144 4 144 23 0 19 -8 20
-148 23 -127 2 -148 0 -154 -13z"/>
<path d="M429 639 c-10 -6 -10 -11 -1 -22 9 -11 58 -15 229 -19 119 -3 223 -4
230 -1 7 3 13 16 13 29 l0 24 -229 -1 c-126 -1 -235 -5 -242 -10z"/>
<path d="M428 549 c-9 -6 -8 -12 2 -24 11 -13 34 -15 149 -13 128 3 136 4 136
23 0 19 -7 20 -138 20 -76 0 -143 -3 -149 -6z"/>
<path d="M429 459 c-5 -3 -7 -13 -3 -22 5 -15 27 -17 170 -19 324 -5 299 -6
299 22 l0 25 -228 0 c-126 0 -233 -3 -238 -6z"/>
<path d="M430 370 c-12 -7 -12 -13 -4 -27 10 -15 29 -18 135 -21 68 -1 134 0
147 3 26 6 30 40 6 49 -26 10 -268 7 -284 -4z"/>
<path d="M0 651 c0 -289 4 -452 10 -456 6 -3 10 -15 10 -27 0 -11 6 -32 14
-46 8 -15 17 -39 20 -53 3 -15 14 -37 25 -50 19 -23 20 -23 26 -4 3 11 13 33
21 48 7 16 14 34 14 41 0 7 14 39 30 71 l30 59 -2 431 -3 430 -97 3 -98 3 0
-450z m78 5 l-3 -401 -25 0 -25 0 -3 402 c-2 376 -1 402 15 405 44 10 43 16
41 -406z m67 -1 c0 -361 -2 -400 -16 -403 -9 -2 -18 3 -20 10 -2 7 -3 190 -1
406 2 365 4 393 20 390 16 -3 17 -33 17 -403z m-31 -441 c22 -8 20 -37 -3 -65
-19 -23 -19 -24 -40 -5 -20 18 -28 56 -14 69 8 9 36 9 57 1z"/>
</g>
</svg>
