<?xml version="1.0" standalone="no"?>
<!DOCTYPE svg PUBLIC "-//W3C//DTD SVG 20010904//EN"
 "http://www.w3.org/TR/2001/REC-SVG-20010904/DTD/svg10.dtd">
<svg version="1.0" xmlns="http://www.w3.org/2000/svg"
 width="126.000000pt" height="126.000000pt" viewBox="0 0 126.000000 126.000000"
 preserveAspectRatio="xMidYMid meet">
<metadata>
Created by potrace 1.10, written by Peter Selinger 2001-2011
</metadata>
<g transform="translate(0.000000,126.000000) scale(0.100000,-0.100000)"
fill="#000000" stroke="none">
<path d="M988 1213 c-3 -41 -6 -48 -28 -53 -15 -4 -26 -15 -30 -30 -4 -18 -14
-26 -33 -28 -15 -2 -31 -12 -37 -22 -9 -18 -39 -18 -65 0 -5 3 -32 15 -60 26
-62 24 -266 27 -330 5 -135 -46 -214 -102 -305 -217 -28 -36 -70 -133 -84
-193 -71 -312 113 -614 417 -686 128 -30 278 -12 392 48 78 41 202 165 237
237 69 141 82 303 34 443 -30 89 -31 100 -12 117 8 6 16 26 18 43 2 24 9 33
28 37 18 4 26 14 30 35 5 28 9 30 53 33 l47 3 0 59 0 59 -62 3 c-62 3 -63 4
-66 33 -1 17 -5 45 -8 63 l-5 32 -64 0 -64 0 -3 -47z m90 -5 c7 -7 12 -31 12
-55 0 -46 5 -49 80 -55 27 -2 36 -8 38 -25 3 -17 -3 -24 -25 -28 -49 -11 -51
-13 -55 -42 -2 -22 -9 -29 -33 -33 -25 -4 -31 -11 -35 -40 -5 -35 -6 -35 -59
-38 -30 -2 -58 1 -62 5 -5 5 23 40 61 78 61 61 87 105 62 105 -4 0 -41 -32
-82 -70 -43 -42 -77 -67 -82 -62 -5 5 -8 31 -6 57 3 45 5 49 38 60 23 8 36 19
40 35 4 15 15 26 30 30 19 4 26 14 28 35 4 30 18 55 31 55 4 0 12 -5 19 -12z
m-411 -122 c70 -15 117 -35 166 -68 24 -17 27 -26 27 -73 0 -67 -20 -78 -74
-41 -55 37 -152 66 -221 66 -225 0 -405 -180 -405 -405 0 -243 190 -419 435
-403 268 17 441 296 341 553 -15 38 -34 77 -43 88 -29 31 -5 52 56 52 56 -1
69 -11 100 -80 82 -181 41 -417 -99 -569 -109 -118 -225 -169 -385 -170 -79
-1 -114 4 -167 22 -167 58 -285 178 -344 352 -26 78 -24 243 4 322 63 175 211
309 388 352 77 19 138 19 221 2z m27 -174 c58 -25 106 -55 106 -68 0 -14 -63
-84 -77 -84 -6 0 -16 6 -22 14 -18 22 -129 49 -170 41 -60 -11 -134 -53 -164
-92 -44 -58 -62 -136 -49 -202 38 -178 231 -261 384 -165 100 63 135 211 79
328 l-23 47 33 35 c18 19 40 34 50 34 10 0 29 -25 50 -67 64 -129 50 -283 -36
-392 -80 -100 -174 -146 -300 -146 -70 1 -88 5 -147 34 -127 63 -206 180 -215
316 -12 177 123 352 297 385 60 11 152 3 204 -18z m-44 -152 c22 -11 40 -26
40 -32 0 -7 -17 -29 -37 -50 -31 -32 -44 -38 -79 -38 -75 0 -110 -75 -58 -127
48 -48 123 -8 124 67 0 26 9 43 37 72 20 21 43 38 51 38 24 0 55 -88 49 -141
-26 -220 -307 -273 -408 -77 -40 77 -19 188 48 249 66 62 158 77 233 39z m-72
-190 c20 -26 20 -30 6 -38 -36 -20 -71 10 -59 49 9 27 28 23 53 -11z"/>
</g>
</svg>
